# xmcd
#
# Track frame offsets:
#	150
#	16920
#	25717
#	36512
#	47910
#	63422
#	81455
#	96660
#	111590
#	117610
#	129422
#	142527
#	158245
#	169992
#	180967
#	192452
#	205420
#	222072
#	236457
#	251900
#	267655
#	277477
#	290960
#	301562
#	312232
#
# Disc length: 4313
#
# Revision: 3
# Processed by: cddbd v1.5.1PL0 Copyright (c) Steve Scherf et al.
# Submitted via: xmcd 2.2 PL1
# Normalized: r2:DSETVAR1
#
DISCID=8710d719,8a10d819
DTITLE=Various Artist - Blues 'N' Soul Greats 4
DYEAR=1900
DGENRE=
TTITLE0=John Lee Hooker - Blues before Sunrise
TTITLE1=Billie Holiday - When your lover has gone
TTITLE2=Howlin' Wolf - Hold onto your Money
TTITLE3=John Lee Hooker - Little Wheel
TTITLE4=B. B. King - How blue can you get
TTITLE5=Lightnin' Hopkins - Bring me my Shotgun
TTITLE6=Gatemouth Moore - Everybody has their turn
TTITLE7=Ray Charles - I'm wonderin' and wonderin'
TTITLE8=Leadbelly - Big fat Woman
TTITLE9=John Lee Hooker - Whiskey and Wimmen
TTITLE10=Roy Milton - I got a big fat Mama
TTITLE11=Billie Holiday - Easy to remember
TTITLE12=B. B. King - Payin' the cost to be the Boss
TTITLE13=Elmore James - Coming Home
TTITLE14=Lightnin' Hopkins - Sometimes she will
TTITLE15=Muddy Waters - Forty Days and Forty Nights
TTITLE16=John Lee Hooker - Process
TTITLE17=Leadbelly - In New Orleans
TTITLE18=Gatemouth Moore - Were you loving me
TTITLE19=Lightnin' Hopkins - Coffee for Mama
TTITLE20=John Lee Hooker - Dusty Road
TTITLE21=Muddy Waters - Sad Letter Blues
TTITLE22=Billie Holiday - Ain't nobody's Biz-ness if I do
TTITLE23=Ray Charles - I wonder who's kissing her now
TTITLE24=John Lee Hooker - What do you say
EXTD=
EXTT0=
EXTT1=
EXTT2=
EXTT3=
EXTT4=
EXTT5=
EXTT6=
EXTT7=
EXTT8=
EXTT9=
EXTT10=
EXTT11=
EXTT12=
EXTT13=
EXTT14=
EXTT15=
EXTT16=
EXTT17=From Porgy and Bess
EXTT18=
EXTT19=
EXTT20=
EXTT21=
EXTT22=
EXTT23=
EXTT24=
PLAYORDER=
